# xmcd CD database file generated by Grip 3.2.0
# 
# Track frame offsets:
#       150
#       27387
#       50340
#       68780
#       87320
#       111140
#       131700
#       149882
#       171907
#       201585
#       224870
#       245990
#       263907
#       284777
#       302640
# 
# Disc length: 4255 seconds
# 
# Revision: 1
# Processed by: cddbd v1.5.2PL0 Copyright (c) Steve Scherf et al.
# Submitted via: Grip 3.2.0
# 
DISCID=06109d0f
DTITLE=John Mayall and The Bluesbreakers - Road Dogs
DYEAR=2005
DGENRE=Blues
TTITLE0=Road Dogs
TTITLE1=Short Wave Radio
TTITLE2=So Glad
TTITLE3=Forty Days
TTITLE4=To Heal The Pain
TTITLE5=Burned Bridges
TTITLE6=Snake Eye
TTITLE7=Kona Village
TTITLE8=Beyond Control
TTITLE9=Chaos In The Neighborhood
TTITLE10=You'll Survive
TTITLE11=Awestruck and Spellbound
TTITLE12=With You
TTITLE13=Brumwell's Beat
TTITLE14=Scrambling
EXTD=
EXTT0=
EXTT1=
EXTT2=
EXTT3=
EXTT4=
EXTT5=
EXTT6=
EXTT7=
EXTT8=
EXTT9=
EXTT10=
EXTT11=
EXTT12=
EXTT13=
EXTT14=
PLAYORDER=
